<svg xmlns="http://www.w3.org/2000/svg" width="1200" height="700" viewBox="0 0 1200 700">
  <defs><linearGradient id="g" x2="1" y2="1"><stop stop-color="#081b38"/><stop offset="1" stop-color="#155e75"/></linearGradient></defs><rect width="1200" height="700" rx="44" fill="url(#g)"/>
  <path d="M765 190q115-70 230 0v330q-115-70-230 0-115-70-230 0V190q115-70 230 0Z" fill="none" stroke="#67e8f9" stroke-width="18"/><path d="M765 190v330" stroke="#67e8f9" stroke-width="12"/><path d="M585 270q90-38 140 0M805 270q55-38 140 0M585 330q90-38 140 0M805 330q55-38 140 0" fill="none" stroke="#67e8f9" stroke-opacity=".55" stroke-width="10"/>
  <text x="72" y="145" fill="#67e8f9" font-family="sans-serif" font-size="30" font-weight="700">PENDIDIKAN</text><text x="72" y="305" fill="white" font-family="sans-serif" font-size="78" font-weight="800">Kelas</text><text x="72" y="395" fill="white" font-family="sans-serif" font-size="78" font-weight="800">Al-Quran</text><text x="76" y="490" fill="#bce7ef" font-family="sans-serif" font-size="30">Kanak-kanak &amp; dewasa</text>
</svg>
